<svg xmlns="http://www.w3.org/2000/svg" width="188" height="221" fill="none" viewBox="0 0 188 221"><g clip-path="url(#clip0_2_30)"><path fill="#111" d="M52.5378 147.006C58.1314 150.292 63.415 153.402 68.6985 156.524C81.1508 163.865 93.5039 171.394 106.093 178.482C115.494 183.783 125.156 183.342 134.21 177.5C143.276 171.658 147.629 162.971 147.009 152.055C146.439 142.096 141.664 134.504 133.267 129.342C108.995 114.397 84.7848 99.3638 60.4011 84.6204C48.7178 77.5571 47.0682 61.9324 56.395 52.9554C62.5344 47.0505 71.6504 45.8922 79.278 50.1729C87.4018 54.7306 95.5007 59.3513 103.6 63.9468C120.083 73.3015 136.653 82.5052 153.024 92.0487C174.742 104.702 186.375 123.877 187.839 149.26C188.893 167.44 184.006 183.795 172.1 197.557C157.936 213.912 139.94 221.743 118.471 220.937C108.226 220.559 98.6386 217.525 89.7335 212.388C77.7649 205.489 65.8335 198.501 53.8649 191.601C52.8479 191.022 52.5006 190.393 52.513 189.222C52.5502 175.662 52.5378 162.102 52.5378 148.555C52.5378 148.139 52.5378 147.724 52.5378 146.993V147.006Z"/><path fill="#111" d="M135.288 71.2112C132.398 69.6626 129.669 68.2021 126.941 66.729C111.946 58.646 96.9636 50.5125 81.9439 42.4672C66.5522 34.2205 47.8117 41.7496 42.3793 58.306C38.2368 70.9216 43.2971 84.6578 54.6084 91.6077C79.1161 106.666 103.611 121.724 128.119 136.782C132.671 139.577 135.821 143.506 137.074 148.743C139.034 156.965 136.838 164.066 130.252 169.24C123.629 174.453 116.275 174.982 108.87 170.89C98.4023 165.098 88.0337 159.118 77.6278 153.2C62.6702 144.702 47.5017 136.543 32.7921 127.616C13.9524 116.172 3.31087 98.9228 0.594681 76.814C-0.992863 63.9213 0.532668 51.3687 5.85342 39.4329C17.5616 13.1819 44.9591 -2.69468 73.1504 0.37739C82.3036 1.37204 90.8739 4.24266 98.824 8.93889C110.631 15.9266 122.377 23.0024 134.159 30.0405C134.928 30.5063 135.437 30.9218 135.424 31.992C135.375 44.6957 135.4 57.3869 135.4 70.0907C135.4 70.3928 135.338 70.695 135.288 71.2112Z"/></g><defs><clipPath id="clip0_2_30"><rect width="188" height="221" fill="#fff"/></clipPath></defs></svg>